
<svg xmlns="http://www.w3.org/2000/svg" viewBox="0 0 1000 280" width="1000" height="280">
  <defs>
    <linearGradient id="amberGrad" x1="0%" y1="0%" x2="100%" y2="100%">
      <stop offset="0%" stop-color="#FBBF24" />
      <stop offset="100%" stop-color="#F59E0B" />
    </linearGradient>
    <linearGradient id="amberTextGrad" x1="0%" y1="0%" x2="100%" y2="0%">
      <stop offset="0%" stop-color="#FBBF24" />
      <stop offset="100%" stop-color="#F59E0B" />
    </linearGradient>
    <filter id="subtleGlow" x="-20%" y="-20%" width="140%" height="140%">
      <feDropShadow dx="0" dy="8" stdDeviation="12" flood-color="#F59E0B" flood-opacity="0.35" />
    </filter>
  </defs>

  <!-- Icon Rounded Box -->
  <g filter="url(#subtleGlow)">
    <rect x="40" y="40" width="200" height="200" rx="52" fill="url(#amberGrad)" />
  </g>

  <!-- Icon Sparkle Symbol (Four-point star + mini beads) -->
  <g fill="#09090B">
    <!-- Center 4-point star -->
    <path d="M 140 78 
             C 140 115 145 135 182 140 
             C 145 145 140 165 140 202 
             C 140 165 135 145 98 140 
             C 135 135 140 115 140 78 Z" />
    
    <!-- Mini star top-right -->
    <path d="M 180 92 
             C 180 104 182 110 194 112 
             C 182 114 180 120 180 132 
             C 180 120 178 114 166 112 
             C 178 110 180 104 180 92 Z" transform="scale(0.85) translate(25, 0)" />
    
    <!-- Mini bead dot bottom-left -->
    <circle cx="96" cy="184" r="8" />
  </g>

  <!-- Typography: BeadForge -->
  <g transform="translate(280, 185)">
    <text font-family="Inter, -apple-system, BlinkMacSystemFont, 'Segoe UI', Roboto, 'Helvetica Neue', Arial, sans-serif" 
          font-size="124" 
          font-weight="900" 
          letter-spacing="-3">
      <tspan fill="#FFFFFF">Bead</tspan>
      <tspan fill="url(#amberTextGrad)">Forge</tspan>
    </text>
  </g>
</svg>
